# This file uses centimeters as units for non-parametric coordinates.

mtllib HC.mtl
g default
v -9.034275 1.868863 -0.163264
v -8.842048 2.317338 0.138139
v -8.976564 2.135980 0.361830
v -9.030128 2.762050 0.426183
v -9.889580 2.762050 0.426183
v -10.077661 2.317338 0.138139
v -9.943145 2.135980 0.361830
v -9.885433 1.868863 -0.163264
v -8.363336 5.358083 -4.520902
v -8.525066 4.690809 -4.765101
v -9.459854 2.887190 0.508674
v -9.459854 2.580032 0.654880
v -8.525066 5.844996 -4.003410
v -9.459854 5.985760 -3.910515
v -10.556372 5.358083 -4.520902
v -10.394642 5.844996 -4.003410
v -9.459854 1.691924 0.068786
v -9.459854 1.752577 -0.240101
v -10.394642 4.690809 -4.765101
v -9.459854 4.550047 -4.857997
v -9.459854 5.448262 -4.657551
v -10.003189 3.074639 -0.181936
v -9.459854 3.256059 -0.062307
v -8.916520 3.074639 -0.181936
v -8.747446 2.668419 -0.446676
v -8.916520 2.265263 -0.716075
v -9.459854 2.083934 -0.835834
v -10.003189 2.265263 -0.716075
v -10.172263 2.668419 -0.446676
v -10.307729 3.645602 -0.649508
v -9.459854 3.745191 -0.583784
v -8.611979 3.645602 -0.649508
v -8.432538 3.058625 -1.036399
v -8.611979 2.472084 -1.423953
v -9.459854 2.372496 -1.489678
v -10.307729 2.472084 -1.423953
v -10.487170 3.058625 -1.036399
v -8.977082 2.235206 0.162270
v -8.977082 2.280170 0.191941
v -7.928426 1.227275 1.787393
v -7.928426 1.182311 1.757716
v -10.991282 1.182311 1.757716
v -10.991282 1.227275 1.787393
v -9.942626 2.280170 0.191941
v -9.942626 2.235206 0.162270
v -6.762447 -1.957996 6.580610
v -6.762447 -1.972249 6.571204
v -6.762447 -0.885971 4.989581
v -7.174549 0.170609 3.388551
v -6.762447 -0.930936 4.959910
v -7.174549 0.125643 3.358880
v -12.157261 -0.885971 4.989581
v -11.745160 0.170609 3.388551
v -11.745160 0.125643 3.358875
v -12.157261 -0.930936 4.959904
v -12.157261 -1.972249 6.571204
v -12.157261 -1.957996 6.580610
v -8.980797 2.283942 0.186228
v -9.938911 2.283942 0.186228
v -9.938911 2.238978 0.156552
v -8.980797 2.238978 0.156552
v -10.018653 3.028530 0.050006
v -9.990316 2.535304 0.745956
v -10.250968 2.560369 -0.258946
v -10.210881 2.090788 0.452604
v -10.018653 2.092210 -0.567903
v -9.990316 1.646270 0.159252
v -9.457694 1.898290 -0.695880
v -9.457694 1.462149 0.037743
v -8.896822 2.092207 -0.567903
v -8.925159 1.646270 0.159252
v -8.664421 2.560369 -0.258946
v -8.704508 2.090788 0.452604
v -8.896822 3.028530 0.050006
v -8.925159 2.535304 0.745956
v -9.457694 3.222446 0.177983
v -9.457694 2.719425 0.867465
v -9.457694 2.090788 0.452604
v -9.457694 2.560369 -0.258946
vt 0.870921 0.811551
vt 0.868694 0.876609
vt 0.611826 0.876609
vt 0.614662 0.813650
vt 0.870925 0.949151
vt 0.611894 0.947509
vt 0.871683 0.575995
vt 0.868387 0.639662
vt 0.611079 0.639662
vt 0.614447 0.578035
vt 0.871373 0.704861
vt 0.613992 0.702956
vt 0.430939 0.915350
vt 0.432769 0.876609
vt 0.456705 0.876609
vt 0.454539 0.910974
vt 0.884818 0.521235
vt 0.616428 0.521638
vt 0.611920 0.460682
vt 0.872577 0.461667
vt 0.455821 0.639662
vt 0.430574 0.639662
vt 0.430389 0.528300
vt 0.456583 0.586401
vt 0.456451 0.690150
vt 0.432105 0.759194
vt 0.884661 0.758006
vt 0.616419 0.758263
vt 0.456227 0.825009
vt 0.986129 0.642473
vt 0.925790 0.640192
vt 0.922799 0.566486
vt 0.972973 0.576644
vt 0.920251 0.716499
vt 0.969845 0.706815
vt 0.450330 0.472606
vt 0.454433 0.521638
vt 0.456054 0.757113
vt 0.510860 0.692779
vt 0.507261 0.639662
vt 0.508219 0.583951
vt 0.508426 0.521638
vt 0.505521 0.468119
vt 0.508969 0.876609
vt 0.508501 0.919522
vt 0.510594 0.823504
vt 0.509544 0.758616
vt 0.032969 0.184707
vt 0.031399 0.181841
vt 0.147488 0.118245
vt 0.148876 0.121196
vt 0.847490 0.121201
vt 0.963340 0.184759
vt 0.963339 0.243278
vt 0.847487 0.306834
vt 0.148872 0.306792
vt 0.147482 0.309746
vt 0.031387 0.246133
vt 0.032956 0.243270
vt 0.497651 0.050462
vt 0.498687 0.050464
vt 0.498687 0.377551
vt 0.497651 0.377553
vt 0.614973 0.050519
vt 0.731229 0.075508
vt 0.731223 0.352523
vt 0.614958 0.377504
vt 0.264193 0.072390
vt 0.381035 0.047376
vt 0.381371 0.050619
vt 0.265140 0.075512
vt 0.381360 0.377397
vt 0.265121 0.352490
vt 0.381026 0.380637
vt 0.264173 0.355613
vt 0.497660 0.378588
vt 0.497660 0.049426
vt 0.963754 0.184986
vt 0.963753 0.243051
vt 0.030973 0.245907
vt 0.032542 0.243043
vt 0.032555 0.184934
vt 0.030985 0.182068
vt 0.254531 0.856250
vt 0.254568 0.915756
vt 0.208490 0.915899
vt 0.208448 0.856176
vt 0.300630 0.856243
vt 0.300633 0.915720
vt 0.346727 0.856269
vt 0.346698 0.915705
vt 0.392793 0.856456
vt 0.392793 0.915556
vt 0.024146 0.915950
vt 0.024146 0.856101
vt 0.070220 0.856257
vt 0.070233 0.915777
vt 0.116317 0.856277
vt 0.116299 0.915751
vt 0.162410 0.856337
vt 0.162368 0.915731
vt 0.133195 0.763035
vt 0.176731 0.719993
vt 0.193628 0.763631
vt 0.175001 0.805972
vt 0.132278 0.822850
vt 0.090238 0.804774
vt 0.072867 0.762401
vt 0.090241 0.719592
vt 0.133195 0.701080
vt 0.282315 0.763935
vt 0.323452 0.808436
vt 0.279936 0.824490
vt 0.342870 0.766314
vt 0.326816 0.722798
vt 0.284694 0.703379
vt 0.241178 0.719433
vt 0.221759 0.761556
vt 0.237813 0.805072
vn -0.641552 -0.548147 -0.536606
vn 0.000000 -0.724519 -0.689255
vn 0.000000 -0.855492 -0.517816
vn -0.628219 -0.679843 -0.378358
vn 0.000000 -0.724519 -0.689255
vn 0.641552 -0.548147 -0.536606
vn 0.628219 -0.679843 -0.378358
vn 0.000000 -0.855492 -0.517816
vn 0.641555 0.708932 0.292955
vn -0.000000 0.918644 0.395087
vn -0.000000 0.812360 0.583157
vn 0.628156 0.615171 0.476429
vn -0.000000 0.918644 0.395087
vn -0.641555 0.708932 0.292955
vn -0.628156 0.615171 0.476429
vn -0.000000 0.812360 0.583157
vn 0.729647 -0.385948 0.564499
vn -0.000000 -0.978475 0.206364
vn 0.000000 -0.959764 -0.280808
vn 0.658040 -0.734403 -0.166239
vn 0.968756 0.136607 -0.207005
vn 0.997207 -0.041115 0.062355
vn 0.628219 -0.679843 -0.378358
vn 0.641552 -0.548147 -0.536606
vn 0.641555 0.708932 0.292955
vn 0.628156 0.615171 0.476429
vn 0.997207 -0.041115 0.062355
vn 0.968756 0.136607 -0.207005
vn -0.000000 0.645300 0.763929
vn -0.000000 0.114635 0.993408
vn 0.729647 -0.385948 0.564499
vn 0.653020 0.451198 0.608264
vn -0.653020 0.451198 0.608263
vn -0.729647 -0.385948 0.564499
vn -0.000000 0.114635 0.993408
vn -0.000000 0.645300 0.763929
vn -0.968756 0.136607 -0.207005
vn -0.997207 -0.041115 0.062355
vn -0.628156 0.615171 0.476429
vn -0.641555 0.708932 0.292955
vn -0.641552 -0.548147 -0.536606
vn -0.628219 -0.679843 -0.378358
vn -0.997207 -0.041115 0.062355
vn -0.968756 0.136607 -0.207005
vn -0.000000 -0.978475 0.206364
vn -0.729647 -0.385948 0.564499
vn -0.658040 -0.734403 -0.166239
vn 0.000000 -0.959764 -0.280808
vn 0.000000 -0.724519 -0.689255
vn 0.000000 0.550806 -0.834633
vn 0.968756 0.136607 -0.207005
vn 0.641552 -0.548147 -0.536606
vn 0.968756 0.136607 -0.207005
vn 0.000000 0.550806 -0.834633
vn -0.000000 0.918644 0.395087
vn 0.641555 0.708932 0.292955
vn 0.000000 0.550806 -0.834633
vn -0.968756 0.136607 -0.207005
vn -0.641555 0.708932 0.292955
vn -0.000000 0.918644 0.395087
vn -0.641552 -0.548147 -0.536606
vn -0.968756 0.136607 -0.207005
vn 0.000000 0.550806 -0.834633
vn 0.000000 -0.724519 -0.689255
vn 0.729647 -0.385948 0.564499
vn 0.658040 -0.734403 -0.166239
vn 0.981395 -0.098741 0.164661
vn 0.729647 -0.385948 0.564499
vn 0.981395 -0.098741 0.164661
vn 0.653020 0.451198 0.608264
vn -0.729647 -0.385948 0.564499
vn -0.653020 0.451198 0.608263
vn -0.981395 -0.098741 0.164661
vn -0.729647 -0.385948 0.564499
vn -0.981395 -0.098741 0.164661
vn -0.658040 -0.734403 -0.166239
vn -0.667695 0.435424 0.603813
vn -0.653020 0.451198 0.608263
vn -0.000000 0.645300 0.763929
vn -0.000000 0.732553 0.680709
vn -0.000000 0.732553 0.680709
vn -0.000000 0.645300 0.763929
vn 0.653020 0.451198 0.608264
vn 0.667695 0.435423 0.603812
vn 0.653020 0.451198 0.608264
vn 0.981395 -0.098741 0.164661
vn 0.947339 -0.180250 0.264686
vn 0.667695 0.435423 0.603812
vn 0.981395 -0.098741 0.164661
vn 0.658040 -0.734403 -0.166239
vn 0.660063 -0.736711 -0.146883
vn 0.947339 -0.180250 0.264686
vn 0.658040 -0.734403 -0.166239
vn 0.000000 -0.959764 -0.280808
vn 0.000000 -0.925595 -0.378515
vn 0.660063 -0.736711 -0.146883
vn 0.000000 -0.959764 -0.280808
vn -0.658040 -0.734403 -0.166239
vn -0.660063 -0.736711 -0.146883
vn 0.000000 -0.925595 -0.378515
vn -0.658040 -0.734403 -0.166239
vn -0.981395 -0.098741 0.164661
vn -0.947339 -0.180249 0.264686
vn -0.660063 -0.736711 -0.146883
vn -0.981395 -0.098741 0.164661
vn -0.653020 0.451198 0.608263
vn -0.667695 0.435424 0.603813
vn -0.947339 -0.180249 0.264686
vn -0.667695 0.435424 0.603813
vn -0.000000 0.732553 0.680709
vn -0.000000 0.812360 0.583157
vn -0.628156 0.615171 0.476429
vn -0.000000 0.732553 0.680709
vn 0.667695 0.435423 0.603812
vn 0.628156 0.615171 0.476429
vn -0.000000 0.812360 0.583157
vn 0.667695 0.435423 0.603812
vn 0.947339 -0.180250 0.264686
vn 0.997207 -0.041115 0.062355
vn 0.628156 0.615171 0.476429
vn 0.947339 -0.180250 0.264686
vn 0.660063 -0.736711 -0.146883
vn 0.628219 -0.679843 -0.378358
vn 0.997207 -0.041115 0.062355
vn 0.660063 -0.736711 -0.146883
vn 0.000000 -0.925595 -0.378515
vn 0.000000 -0.855492 -0.517816
vn 0.628219 -0.679843 -0.378358
vn 0.000000 -0.925595 -0.378515
vn -0.660063 -0.736711 -0.146883
vn -0.628219 -0.679843 -0.378358
vn 0.000000 -0.855492 -0.517816
vn -0.660063 -0.736711 -0.146883
vn -0.947339 -0.180249 0.264686
vn -0.997207 -0.041115 0.062355
vn -0.628219 -0.679843 -0.378358
vn -0.947339 -0.180249 0.264686
vn -0.667695 0.435424 0.603813
vn -0.628156 0.615171 0.476429
vn -0.997207 -0.041115 0.062355
vn 0.020321 -0.828269 -0.559962
vn 0.020321 0.840550 0.541353
vn 0.017651 0.839050 0.543768
vn 0.017651 -0.829899 -0.557634
vn 0.017651 0.839050 0.543768
vn 0.020321 0.840550 0.541353
vn -0.020321 0.840550 0.541353
vn -0.017651 0.839050 0.543768
vn -0.017651 -0.829899 -0.557634
vn -0.017651 0.839050 0.543768
vn -0.020321 0.840550 0.541353
vn -0.020321 -0.828269 -0.559962
vn 0.020321 -0.828269 -0.559962
vn 0.017651 -0.829899 -0.557634
vn -0.017651 -0.829899 -0.557634
vn -0.020321 -0.828269 -0.559962
vn 0.006615 -0.844657 -0.535267
vn 0.006615 0.824288 0.566132
vn -0.006615 0.824288 0.566132
vn -0.006615 -0.844657 -0.535267
vn 0.009183 0.832312 0.554232
vn 0.012585 0.836667 0.547567
vn -0.012585 0.836667 0.547567
vn -0.009183 0.832312 0.554232
vn 0.012585 0.836667 0.547567
vn 0.009183 0.832312 0.554232
vn 0.009183 -0.836870 -0.547324
vn 0.012585 -0.832455 -0.553950
vn 0.012585 -0.832455 -0.553950
vn 0.009183 -0.836870 -0.547324
vn -0.009183 -0.836870 -0.547324
vn -0.012585 -0.832455 -0.553950
vn -0.009183 0.832312 0.554232
vn -0.012585 0.836667 0.547567
vn -0.012585 -0.832455 -0.553950
vn -0.009183 -0.836870 -0.547324
vn 0.012585 0.836667 0.547567
vn 0.017651 0.839050 0.543768
vn -0.017651 0.839050 0.543768
vn -0.012585 0.836667 0.547567
vn 0.017651 0.839050 0.543768
vn 0.012585 0.836667 0.547567
vn 0.012585 -0.832455 -0.553950
vn 0.017651 -0.829899 -0.557634
vn 0.017651 -0.829899 -0.557634
vn 0.012585 -0.832455 -0.553950
vn -0.012585 -0.832455 -0.553950
vn -0.017651 -0.829899 -0.557634
vn -0.012585 0.836667 0.547567
vn -0.017651 0.839050 0.543768
vn -0.017651 -0.829899 -0.557634
vn -0.012585 -0.832455 -0.553950
vn -0.009183 0.832312 0.554232
vn -0.009183 -0.836870 -0.547324
vn -0.006615 -0.844657 -0.535267
vn -0.006615 0.824288 0.566132
vn 0.009183 -0.836870 -0.547324
vn 0.006615 -0.844657 -0.535267
vn -0.006615 -0.844657 -0.535267
vn -0.009183 -0.836870 -0.547324
vn 0.009183 -0.836870 -0.547324
vn 0.009183 0.832312 0.554232
vn 0.006615 0.824288 0.566132
vn 0.006615 -0.844657 -0.535267
vn 0.006615 0.824288 0.566132
vn 0.009183 0.832312 0.554232
vn -0.009183 0.832312 0.554232
vn -0.006615 0.824288 0.566132
vn 0.020321 0.840550 0.541353
vn 0.042403 0.846470 0.530745
vn -0.042403 0.846470 0.530745
vn -0.020321 0.840550 0.541353
vn -0.020321 0.840550 0.541353
vn -0.042403 0.846470 0.530745
vn -0.042403 -0.820843 -0.569577
vn -0.020321 -0.828269 -0.559962
vn 0.042403 -0.820843 -0.569577
vn 0.042403 0.846470 0.530745
vn 0.020321 0.840550 0.541353
vn 0.020321 -0.828269 -0.559962
vn 0.020321 -0.828269 -0.559962
vn -0.020321 -0.828269 -0.559962
vn -0.042403 -0.820843 -0.569577
vn 0.042403 -0.820843 -0.569577
vn -0.674419 0.728426 0.120642
vn -0.664019 0.364877 0.652644
vn -0.000000 0.594439 0.804141
vn -0.000000 0.961584 0.274512
vn -0.664019 0.364877 0.652644
vn -0.674419 0.728426 0.120642
vn -0.953773 0.165533 -0.250831
vn -0.939065 -0.189334 0.286898
vn -0.939065 -0.189334 0.286898
vn -0.953773 0.165533 -0.250831
vn -0.674420 -0.397359 -0.622305
vn -0.664019 -0.743546 -0.078847
vn -0.664019 -0.743546 -0.078847
vn -0.674420 -0.397359 -0.622305
vn 0.000000 -0.630518 -0.776175
vn 0.000000 -0.973109 -0.230344
vn 0.000000 -0.973109 -0.230344
vn 0.000000 -0.630518 -0.776175
vn 0.674419 -0.397360 -0.622306
vn 0.664019 -0.743547 -0.078848
vn 0.664019 -0.743547 -0.078848
vn 0.674419 -0.397360 -0.622306
vn 0.953773 0.165533 -0.250831
vn 0.939065 -0.189334 0.286898
vn 0.939065 -0.189334 0.286898
vn 0.953773 0.165533 -0.250831
vn 0.674419 0.728426 0.120642
vn 0.664019 0.364878 0.652643
vn 0.664019 0.364878 0.652643
vn 0.674419 0.728426 0.120642
vn -0.000000 0.961584 0.274512
vn -0.000000 0.594439 0.804141
vn -0.000000 -0.550806 0.834633
vn -0.664019 0.364877 0.652644
vn -0.939065 -0.189334 0.286898
vn -0.000000 -0.550806 0.834633
vn -0.939065 -0.189334 0.286898
vn -0.664019 -0.743546 -0.078847
vn -0.000000 -0.550806 0.834633
vn -0.664019 -0.743546 -0.078847
vn 0.000000 -0.973109 -0.230344
vn -0.000000 -0.550806 0.834633
vn 0.000000 -0.973109 -0.230344
vn 0.664019 -0.743547 -0.078848
vn -0.000000 -0.550806 0.834633
vn 0.664019 -0.743547 -0.078848
vn 0.939065 -0.189334 0.286898
vn -0.000000 -0.550806 0.834633
vn 0.939065 -0.189334 0.286898
vn 0.664019 0.364878 0.652643
vn -0.000000 -0.550806 0.834633
vn 0.664019 0.364878 0.652643
vn -0.000000 0.594439 0.804141
vn -0.000000 -0.550806 0.834633
vn -0.000000 0.594439 0.804141
vn -0.664019 0.364877 0.652644
vn 0.000000 0.550806 -0.834633
vn -0.674419 0.728426 0.120642
vn -0.000000 0.961584 0.274512
vn -0.953773 0.165533 -0.250831
vn -0.674419 0.728426 0.120642
vn 0.000000 0.550806 -0.834633
vn -0.674420 -0.397359 -0.622305
vn -0.953773 0.165533 -0.250831
vn 0.000000 0.550806 -0.834633
vn 0.000000 -0.630518 -0.776175
vn -0.674420 -0.397359 -0.622305
vn 0.000000 0.550806 -0.834633
vn 0.674419 -0.397360 -0.622306
vn 0.000000 -0.630518 -0.776175
vn 0.000000 0.550806 -0.834633
vn 0.953773 0.165533 -0.250831
vn 0.674419 -0.397360 -0.622306
vn 0.000000 0.550806 -0.834633
vn 0.674419 0.728426 0.120642
vn 0.953773 0.165533 -0.250831
vn 0.000000 0.550806 -0.834633
vn -0.000000 0.961584 0.274512
vn 0.674419 0.728426 0.120642
vn 0.000000 0.550806 -0.834633
s off
g TEMPORARY_IMPORT_NAMESPACE_FBXASC232FBXASC148FBXASC169FBXASC232FBXASC133FBXASC179___FBXASC232FBXASC159FBXASC148FBXASC232FBXASC177FBXASC158_HuiChan_LShape transform11
usemtl TEMPORARY_IMPORT_NAMESPACE_FBXASC232FBXASC148FBXASC169FBXASC232FBXASC133FBXASC179___FBXASC232FBXASC159FBXASC148FBXASC232FBXASC177FBXASC158_HuiChan_LShapeSG
f 19/1/1 20/2/2 35/3/3 36/4/4
f 20/2/5 10/5/6 34/6/7 35/3/8
f 13/7/9 14/8/10 31/9/11 32/10/12
f 14/8/13 16/11/14 30/12/15 31/9/16
f 3/13/17 17/14/18 18/15/19 1/16/20
f 9/17/21 33/18/22 34/19/23 10/20/24
f 13/7/25 32/10/26 33/18/27 9/17/28
f 11/21/29 12/22/30 3/23/31 4/24/32
f 5/25/33 7/26/34 12/22/35 11/21/36
f 15/27/37 37/28/38 30/12/39 16/11/40
f 19/1/41 36/4/42 37/28/43 15/27/44
f 17/14/45 7/26/46 8/29/47 18/15/48
f 20/30/49 21/31/50 9/32/51 10/33/52
f 9/32/53 21/31/54 14/8/55 13/7/56
f 21/31/57 15/34/58 16/11/59 14/8/60
f 19/35/61 15/34/62 21/31/63 20/30/64
f 3/23/65 1/36/66 2/37/67
f 3/23/68 2/37/69 4/24/70
f 7/26/71 5/25/72 6/38/73
f 7/26/74 6/38/75 8/29/76
f 22/39/77 5/25/78 11/21/79 23/40/80
f 23/40/81 11/21/82 4/24/83 24/41/84
f 4/24/85 2/37/86 25/42/87 24/41/88
f 2/37/89 1/36/90 26/43/91 25/42/92
f 1/16/93 18/15/94 27/44/95 26/45/96
f 18/15/97 8/29/98 28/46/99 27/44/100
f 8/29/101 6/38/102 29/47/103 28/46/104
f 6/38/105 5/25/106 22/39/107 29/47/108
f 22/39/109 23/40/110 31/9/111 30/12/112
f 23/40/113 24/41/114 32/10/115 31/9/116
f 24/41/117 25/42/118 33/18/119 32/10/120
f 25/42/121 26/43/122 34/19/123 33/18/124
f 26/45/125 27/44/126 35/3/127 34/6/128
f 27/44/129 28/46/130 36/4/131 35/3/132
f 28/46/133 29/47/134 37/28/135 36/4/136
f 29/47/137 22/39/138 30/12/139 37/28/140
f 38/48/141 39/49/142 40/50/143 41/51/144
f 40/52/145 39/53/146 44/54/147 43/55/148
f 42/56/149 43/57/150 44/58/151 45/59/152
f 38/48/153 41/51/154 42/56/155 45/59/156
f 47/60/157 46/61/158 57/62/159 56/63/160
f 48/64/161 49/65/162 53/66/163 52/67/164
f 49/68/165 48/69/166 50/70/167 51/71/168
f 51/71/169 50/70/170 55/72/171 54/73/172
f 52/74/173 53/75/174 54/73/175 55/72/176
f 49/65/177 40/52/178 43/55/179 53/66/180
f 40/50/181 49/68/182 51/71/183 41/51/184
f 41/51/185 51/71/186 54/73/187 42/56/188
f 53/75/189 43/57/190 42/56/191 54/73/192
f 52/74/193 55/72/194 56/63/195 57/76/196
f 50/70/197 47/60/198 56/63/199 55/72/200
f 50/70/201 48/69/202 46/77/203 47/60/204
f 46/61/205 48/64/206 52/67/207 57/62/208
f 39/53/209 58/78/210 59/79/211 44/54/212
f 44/58/213 59/80/214 60/81/215 45/59/216
f 61/82/217 58/83/218 39/49/219 38/48/220
f 38/48/221 45/59/222 60/81/223 61/82/224
f 62/84/225 63/85/226 77/86/227 76/87/228
f 63/85/229 62/84/230 64/88/231 65/89/232
f 65/89/233 64/88/234 66/90/235 67/91/236
f 67/91/237 66/90/238 68/92/239 69/93/240
f 69/94/241 68/95/242 70/96/243 71/97/244
f 71/97/245 70/96/246 72/98/247 73/99/248
f 73/99/249 72/98/250 74/100/251 75/101/252
f 75/101/253 74/100/254 76/87/255 77/86/256
f 78/102/257 63/103/258 65/104/259
f 78/102/260 65/104/261 67/105/262
f 78/102/263 67/105/264 69/106/265
f 78/102/266 69/106/267 71/107/268
f 78/102/269 71/107/270 73/108/271
f 78/102/272 73/108/273 75/109/274
f 78/102/275 75/109/276 77/110/277
f 78/102/278 77/110/279 63/103/280
f 79/111/281 62/112/282 76/113/283
f 64/114/284 62/112/285 79/111/286
f 66/115/287 64/114/288 79/111/289
f 68/116/290 66/115/291 79/111/292
f 70/117/293 68/116/294 79/111/295
f 72/118/296 70/117/297 79/111/298
f 74/119/299 72/118/300 79/111/301
f 76/113/302 74/119/303 79/111/304
