# This file uses centimeters as units for non-parametric coordinates.

mtllib JLMMS.mtl
g default
v -11.242182 192.898893 415.820661
v -9.761301 196.474045 415.820661
v -6.186134 197.954944 415.820661
v 11.242182 192.898893 415.820661
v 6.186134 197.954944 415.820661
v 9.761301 196.474045 415.820661
v -9.761301 188.199029 415.820661
v -11.242182 191.774202 415.820661
v -6.186134 186.718152 415.820661
v 9.761301 188.199029 415.820661
v 6.186134 186.718152 415.820661
v 11.242182 191.774202 415.820661
v -5.904987 196.541536 422.682510
v -6.186134 197.954944 421.269128
v 6.186134 197.954944 421.269128
v 5.904987 196.541536 422.682510
v -6.186134 186.718152 421.269128
v -5.904988 188.131560 422.682510
v 5.904988 188.131560 422.682510
v 6.186134 186.718152 421.269128
v -11.242182 192.898893 421.269128
v -9.828769 192.617721 422.682510
v -9.828769 192.055332 422.682510
v -11.242182 191.774202 421.269128
v 9.828769 192.617721 422.682510
v 11.242182 192.898893 421.269128
v 11.242182 191.774202 421.269128
v 9.828769 192.055332 422.682510
v -9.761301 196.474045 421.269128
v -8.679522 195.392241 422.682510
v 9.761301 196.474045 421.269128
v 8.679522 195.392241 422.682510
v -9.761301 188.199029 421.269128
v -8.679522 189.280791 422.682510
v 9.761301 188.199029 421.269128
v 8.679522 189.280791 422.682510
v -5.904986 192.617721 422.682510
v -5.904986 192.055332 422.682510
v 5.904990 192.617721 422.682510
v 5.904990 192.055332 422.682510
vt 0.094832 0.969494
vt 0.124042 0.969493
vt 0.594828 0.969479
vt 0.624039 0.969478
vt 0.953472 0.066628
vt 0.677885 0.300403
vt 0.218859 0.737756
vt 0.208508 0.501315
vt 0.463175 0.496701
vt 0.204095 0.145663
vt 0.148506 0.195417
vt 0.458721 0.141028
vt 0.718856 0.737741
vt 0.515464 0.190273
vt 0.000000 0.737763
vt 0.499997 0.737747
vt 0.518770 0.446932
vt 0.544401 0.329897
vt 0.543559 0.306534
vt 0.728335 0.024813
vt 0.439724 0.737749
vt 0.939720 0.737734
vt 0.903022 0.342218
vt 0.624032 0.737744
vt 0.124035 0.737759
vt 0.677866 0.066650
vt 0.279132 0.737754
vt 0.902997 0.024800
vt 0.594821 0.737744
vt 0.728359 0.342231
vt 0.094824 0.737760
vt 0.953490 0.300382
vt 0.779129 0.737739
vt 0.151774 0.452052
vt 0.123692 0.335796
vt 0.122884 0.312448
vt 0.207941 0.335167
vt 0.207545 0.311470
vt 0.459716 0.330875
vt 0.459337 0.307190
vt 0.779136 0.969473
vt 0.718863 0.969475
vt 0.974389 0.199388
vt 0.656971 0.199413
vt 0.000007 0.969497
vt 0.939727 0.969469
vt 0.974386 0.167618
vt 0.500004 0.969482
vt 0.439731 0.969484
vt 0.279139 0.969489
vt 0.218866 0.969491
vt 0.656968 0.167643
vt 0.584205 0.103533
vt 0.650034 0.286138
vt 0.650289 0.348338
vt 0.589069 0.533344
vt 0.016998 0.293948
vt 0.078215 0.108994
vt 0.017211 0.356128
vt 0.082992 0.538753
vt 0.480751 0.030537
vt 0.179584 0.030523
vt 0.487677 0.611841
vt 0.186443 0.611793
vt 0.999993 0.737732
vt 1.000000 0.969467
vn -0.000000 0.000000 -1.000000
vn -0.000000 0.000000 -1.000000
vn 0.000000 0.000000 -1.000000
vn 0.000000 0.000000 -1.000000
vn -0.027868 0.289896 0.956652
vn -0.087524 0.978443 0.187055
vn -0.686509 0.703150 0.185163
vn -0.248556 0.221299 0.942999
vn 0.027868 0.289896 0.956652
vn 0.087524 0.978443 0.187055
vn 0.248556 0.221299 0.942999
vn 0.686509 0.703150 0.185163
vn -0.087523 -0.978443 0.187055
vn -0.027867 -0.289897 0.956652
vn -0.248558 -0.221303 0.942997
vn -0.686510 -0.703150 0.185160
vn 0.087523 -0.978443 0.187055
vn 0.027867 -0.289897 0.956652
vn 0.686510 -0.703150 0.185160
vn 0.248558 -0.221303 0.942997
vn -0.936682 0.298491 0.183114
vn -0.301643 0.096448 0.948530
vn -0.936683 -0.298490 0.183111
vn -0.301646 -0.096449 0.948529
vn 0.301643 0.096448 0.948530
vn 0.936682 0.298491 0.183114
vn 0.301646 -0.096449 0.948529
vn 0.936683 -0.298490 0.183111
vn -0.092463 0.995716 0.000000
vn 0.092463 0.995716 0.000000
vn -0.092462 -0.995716 0.000000
vn 0.092462 -0.995716 0.000000
vn 0.953774 -0.300525 0.000000
vn 0.953774 0.300526 0.000000
vn -0.953774 -0.300525 0.000000
vn -0.953774 0.300526 0.000000
vn -0.707107 0.707106 0.000000
vn 0.707107 0.707106 0.000000
vn -0.707107 -0.707107 0.000000
vn 0.707107 -0.707107 0.000000
vn 0.000000 0.000000 1.000000
vn 0.000000 0.000000 1.000000
vn -0.000000 0.000000 1.000000
vn -0.000000 0.000000 1.000000
vn 0.000000 0.000000 -1.000000
vn 0.000000 0.000000 -1.000000
vn 0.000000 0.000000 -1.000000
vn 0.000000 0.000000 -1.000000
vn -0.000000 0.000000 -1.000000
vn -0.000000 0.000000 -1.000000
vn 0.000000 0.000000 -1.000000
vn 0.000000 0.000000 -1.000000
s 1
g modelPanel4ViewSelectedSet JLMS
usemtl initialShadingGroup
f 2/26/1 7/6/2 8/44/3 1/52/4
s 2
f 13/8/5 14/64/6 29/60/7 30/34/8
f 14/64/6 13/8/5 16/9/9 15/63/10
f 15/63/10 16/9/9 32/17/11 31/56/12
f 17/62/13 18/10/14 34/11/15 33/58/16
f 18/10/14 17/62/13 20/61/17 19/12/18
f 19/12/18 20/61/17 35/53/19 36/14/20
f 21/59/21 22/35/22 30/34/8 29/60/7
f 22/35/22 21/59/21 24/57/23 23/36/24
f 23/36/24 24/57/23 33/58/16 34/11/15
f 25/18/25 26/55/26 31/56/12 32/17/11
f 26/55/26 25/18/25 28/19/27 27/54/28
f 27/54/28 28/19/27 36/14/20 35/53/19
f 3/50/29 14/27/6 15/21/10 5/49/30
f 17/22/13 9/46/31 11/41/32 20/33/17
f 27/24/28 12/4/33 4/3/34 26/29/26
f 8/1/35 24/31/23 21/25/21 1/2/36
f 21/25/21 29/7/7 2/51/37 1/2/36
f 29/7/7 14/27/6 3/50/29 2/51/37
f 15/21/10 31/16/12 6/48/38 5/49/30
f 31/16/12 26/29/26 4/3/34 6/48/38
f 17/22/13 33/65/16 7/66/39 9/46/31
f 33/15/16 24/31/23 8/1/35 7/45/39
f 27/24/28 35/13/19 10/42/40 12/4/33
f 35/13/19 20/33/17 11/41/32 10/42/40
f 16/9/9 39/39/41 25/18/25 32/17/11
f 39/39/41 40/40/42 28/19/27 25/18/25
f 36/14/20 28/19/27 40/40/42 19/12/18
f 22/35/22 37/37/43 13/8/5 30/34/8
f 23/36/24 38/38/44 37/37/43 22/35/22
f 18/10/14 38/38/44 23/36/24 34/11/15
f 13/8/5 37/37/43 39/39/41 16/9/9
f 37/37/43 38/38/44 40/40/42 39/39/41
f 19/12/18 40/40/42 38/38/44 18/10/14
s 1
f 10/32/45 11/23/46 5/28/47 6/5/48
f 5/28/47 11/23/46 9/30/49 3/20/50
f 10/32/45 6/5/48 4/47/51 12/43/52
f 3/20/50 9/30/49 7/6/2 2/26/1
