# This file uses meters as units for non-parametric coordinates.

mtllib guidao.mtl
g default
v 112.800781 124.201172 404.201691
v 112.800781 370.468750 404.201691
v 129.259766 370.468750 404.201691
v 129.259766 124.201172 404.201691
v 127.167969 370.468750 406.119507
v 127.167969 124.201172 406.119507
v 114.774414 370.468750 406.119507
v 114.774414 124.201172 406.119507
v 114.774414 124.201172 407.631104
v 114.774414 370.468750 407.631104
v 112.800781 370.468750 407.631104
v 112.800781 124.201172 407.631104
v 112.800781 124.201172 425.283264
v 112.800781 370.468750 425.283264
v 129.259766 370.468750 425.283264
v 129.259766 124.201172 425.283264
v 127.167969 370.468750 423.912170
v 127.167969 124.201172 423.912170
v 114.774414 370.468750 423.912140
v 114.774414 124.201172 423.912140
v 114.774414 124.201172 421.966827
v 114.774414 370.468750 421.966827
v 112.800781 370.468750 421.966827
v 112.800781 124.201172 421.966827
v -112.800781 124.201172 404.201691
v -112.800781 370.468750 404.201691
v -129.259766 370.468750 404.201691
v -129.259766 124.201172 404.201691
v -127.167969 370.468750 406.119507
v -127.167969 124.201172 406.119507
v -114.774414 370.468750 406.119507
v -114.774414 124.201172 406.119507
v -114.774414 124.201172 407.631104
v -114.774414 370.468750 407.631104
v -112.800781 370.468750 407.631104
v -112.800781 124.201172 407.631104
v -112.800781 124.201172 425.283264
v -112.800781 370.468750 425.283264
v -129.259766 370.468750 425.283264
v -129.259766 124.201172 425.283264
v -127.167969 370.468750 423.912170
v -127.167969 124.201172 423.912170
v -114.774414 370.468750 423.912140
v -114.774414 124.201172 423.912140
v -114.774414 124.201172 421.966827
v -114.774414 370.468750 421.966827
v -112.800781 370.468750 421.966827
v -112.800781 124.201172 421.966827
vt 0.150985 0.001992
vt 0.150985 0.998008
vt 0.144871 0.998008
vt 0.144871 0.001992
vt 0.157261 0.998008
vt 0.157261 0.001992
vt 0.171131 0.001992
vt 0.171131 0.998008
vt 0.176732 0.998008
vt 0.176732 0.001992
vt 0.248693 0.001992
vt 0.248693 0.998008
vt 0.397984 0.001992
vt 0.405852 0.001992
vt 0.405852 0.998008
vt 0.397984 0.998008
vt 0.425557 0.998008
vt 0.412144 0.998008
vt 0.412144 0.001992
vt 0.425557 0.001992
vt 0.516877 0.998008
vt 0.431614 0.998008
vt 0.431614 0.001992
vt 0.516877 0.001992
vt 0.590223 0.087255
vt 0.523655 0.087255
vt 0.531637 0.079499
vt 0.581762 0.079499
vt 0.523655 0.073385
vt 0.531637 0.073385
vt 0.581762 0.007537
vt 0.590223 0.001992
vt 0.531637 0.007538
vt 0.523655 0.001992
vt 0.531637 0.015405
vt 0.523655 0.015405
vt 0.604208 0.009748
vt 0.596226 0.001992
vt 0.662793 0.001992
vt 0.654333 0.009748
vt 0.604208 0.015862
vt 0.596226 0.015862
vt 0.662793 0.087255
vt 0.654333 0.081710
vt 0.604208 0.081710
vt 0.596226 0.087255
vt 0.596226 0.073842
vt 0.604208 0.073842
vt 0.009305 0.001992
vt 0.009305 0.998008
vt 0.001323 0.998008
vt 0.001323 0.001992
vt 0.015660 0.998008
vt 0.015660 0.001992
vt 0.082228 0.001992
vt 0.082228 0.998008
vt 0.138356 0.998008
vt 0.088231 0.998008
vt 0.088231 0.001992
vt 0.138356 0.001992
vt 0.262595 0.998008
vt 0.254612 0.998008
vt 0.254612 0.001992
vt 0.262595 0.001992
vt 0.268773 0.001992
vt 0.335340 0.001992
vt 0.335340 0.998008
vt 0.268773 0.998008
vt 0.391468 0.001992
vt 0.391468 0.998008
vt 0.341343 0.998008
vt 0.341343 0.001992
vt 0.150985 0.001992
vt 0.150985 0.998008
vt 0.144871 0.998008
vt 0.144871 0.001992
vt 0.157261 0.998008
vt 0.157261 0.001992
vt 0.171131 0.001992
vt 0.171131 0.998008
vt 0.176732 0.998008
vt 0.176732 0.001992
vt 0.248693 0.001992
vt 0.248693 0.998008
vt 0.397984 0.001992
vt 0.405852 0.001992
vt 0.405852 0.998008
vt 0.397984 0.998008
vt 0.425557 0.998008
vt 0.412144 0.998008
vt 0.412144 0.001992
vt 0.425557 0.001992
vt 0.516877 0.998008
vt 0.431614 0.998008
vt 0.431614 0.001992
vt 0.516877 0.001992
vt 0.590223 0.087255
vt 0.523655 0.087255
vt 0.531637 0.079499
vt 0.581762 0.079499
vt 0.523655 0.073385
vt 0.531637 0.073385
vt 0.581762 0.007537
vt 0.590223 0.001992
vt 0.531637 0.007538
vt 0.523655 0.001992
vt 0.531637 0.015405
vt 0.523655 0.015405
vt 0.604208 0.009748
vt 0.596226 0.001992
vt 0.662793 0.001992
vt 0.654333 0.009748
vt 0.604208 0.015862
vt 0.596226 0.015862
vt 0.662793 0.087255
vt 0.654333 0.081710
vt 0.604208 0.081710
vt 0.596226 0.087255
vt 0.596226 0.073842
vt 0.604208 0.073842
vt 0.009305 0.001992
vt 0.009305 0.998008
vt 0.001323 0.998008
vt 0.001323 0.001992
vt 0.015660 0.998008
vt 0.015660 0.001992
vt 0.082228 0.001992
vt 0.082228 0.998008
vt 0.138356 0.998008
vt 0.088231 0.998008
vt 0.088231 0.001992
vt 0.138356 0.001992
vt 0.262595 0.998008
vt 0.254612 0.998008
vt 0.254612 0.001992
vt 0.262595 0.001992
vt 0.268773 0.001992
vt 0.335340 0.001992
vt 0.335340 0.998008
vt 0.268773 0.998008
vt 0.391468 0.001992
vt 0.391468 0.998008
vt 0.341343 0.998008
vt 0.341343 0.001992
vn 0.000000 0.000000 1.000000
vn 0.000000 0.000000 1.000000
vn 0.000000 0.000000 1.000000
vn 0.000000 0.000000 1.000000
vn 0.000000 1.000000 -0.000002
vn 0.000000 1.000000 -0.000002
vn 0.000000 1.000000 -0.000002
vn 0.000000 1.000000 -0.000002
vn 0.000000 0.000000 -1.000000
vn 0.000000 0.000000 -1.000000
vn 0.000000 0.000000 -1.000000
vn 0.000000 0.000000 -1.000000
vn 0.000000 -1.000000 0.000000
vn 0.000000 -1.000000 0.000000
vn 0.000000 -1.000000 0.000000
vn 0.000000 -1.000000 0.000000
vn 0.000000 0.000000 1.000000
vn 0.000000 0.000000 1.000000
vn 0.000000 0.000000 1.000000
vn 0.000000 0.000000 1.000000
vn 1.000000 0.000000 0.000000
vn 1.000000 0.000000 0.000000
vn 1.000000 0.000000 0.000000
vn 1.000000 0.000000 0.000000
vn 0.000000 1.000000 0.000000
vn 0.000000 1.000000 0.000000
vn 0.000000 1.000000 0.000000
vn 0.000000 1.000000 0.000000
vn -1.000000 0.000000 0.000000
vn -1.000000 0.000000 0.000000
vn -1.000000 0.000000 0.000000
vn -1.000000 0.000000 0.000000
vn 0.000000 -1.000000 0.000000
vn 0.000000 -1.000000 0.000000
vn 0.000000 -1.000000 0.000000
vn 0.000000 -1.000000 0.000000
vn -1.000000 0.000000 0.000000
vn -1.000000 0.000000 0.000000
vn -1.000000 0.000000 0.000000
vn -1.000000 0.000000 0.000000
vn 0.000000 0.000000 -1.000000
vn 0.000000 0.000000 -1.000000
vn 0.000000 0.000000 -1.000000
vn 0.000000 0.000000 -1.000000
vn 0.000000 1.000000 0.000000
vn 0.000000 1.000000 0.000000
vn 0.000000 1.000000 0.000000
vn 0.000000 1.000000 0.000000
vn 0.000000 0.000000 1.000000
vn 0.000000 0.000000 1.000000
vn 0.000000 0.000000 1.000000
vn 0.000000 0.000000 1.000000
vn 0.000000 -1.000000 -0.000003
vn 0.000000 -1.000000 -0.000003
vn 0.000000 -1.000000 -0.000003
vn 0.000000 -1.000000 -0.000003
vn 0.000003 0.000000 -1.000000
vn 0.000003 0.000000 -1.000000
vn 0.000003 0.000000 -1.000000
vn 0.000003 0.000000 -1.000000
vn 1.000000 0.000000 0.000000
vn 1.000000 0.000000 0.000000
vn 1.000000 0.000000 0.000000
vn 1.000000 0.000000 0.000000
vn 0.000000 1.000000 0.000000
vn 0.000000 1.000000 0.000000
vn 0.000000 1.000000 0.000000
vn 0.000000 1.000000 0.000000
vn -1.000000 0.000000 0.000000
vn -1.000000 0.000000 0.000000
vn -1.000000 0.000000 0.000000
vn -1.000000 0.000000 0.000000
vn 0.000000 -1.000000 0.000000
vn 0.000000 -1.000000 0.000000
vn 0.000000 -1.000000 0.000000
vn 0.000000 -1.000000 0.000000
vn 0.000000 -1.000000 0.000000
vn 0.000000 -1.000000 0.000000
vn 0.000000 -1.000000 0.000000
vn 0.000000 -1.000000 0.000000
vn 1.000000 0.000000 0.000000
vn 1.000000 0.000000 0.000000
vn 1.000000 0.000000 0.000000
vn 1.000000 0.000000 0.000000
vn 0.000000 1.000000 0.000000
vn 0.000000 1.000000 0.000000
vn 0.000000 1.000000 0.000000
vn 0.000000 1.000000 0.000000
vn 0.000000 0.000000 1.000000
vn 0.000000 0.000000 1.000000
vn 0.000000 0.000000 1.000000
vn 0.000000 0.000000 1.000000
vn 0.000000 1.000000 0.000000
vn 0.000000 1.000000 0.000000
vn 0.000000 1.000000 0.000000
vn 0.000000 1.000000 0.000000
vn 0.000000 0.000000 -1.000000
vn 0.000000 0.000000 -1.000000
vn 0.000000 0.000000 -1.000000
vn 0.000000 0.000000 -1.000000
vn 0.000000 -1.000000 0.000002
vn 0.000000 -1.000000 0.000002
vn 0.000000 -1.000000 0.000002
vn 0.000000 -1.000000 0.000002
vn 0.000000 0.000000 1.000000
vn 0.000000 0.000000 1.000000
vn 0.000000 0.000000 1.000000
vn 0.000000 0.000000 1.000000
vn -1.000000 0.000000 0.000000
vn -1.000000 0.000000 0.000000
vn -1.000000 0.000000 0.000000
vn -1.000000 0.000000 0.000000
vn 0.000000 1.000000 0.000000
vn 0.000000 1.000000 0.000000
vn 0.000000 1.000000 0.000000
vn 0.000000 1.000000 0.000000
vn 1.000000 0.000000 0.000000
vn 1.000000 0.000000 0.000000
vn 1.000000 0.000000 0.000000
vn 1.000000 0.000000 0.000000
vn 0.000000 -1.000000 0.000000
vn 0.000000 -1.000000 0.000000
vn 0.000000 -1.000000 0.000000
vn 0.000000 -1.000000 0.000000
vn 1.000000 0.000000 0.000000
vn 1.000000 0.000000 0.000000
vn 1.000000 0.000000 0.000000
vn 1.000000 0.000000 0.000000
vn 0.000000 0.000000 -1.000000
vn 0.000000 0.000000 -1.000000
vn 0.000000 0.000000 -1.000000
vn 0.000000 0.000000 -1.000000
vn 0.000000 1.000000 0.000003
vn 0.000000 1.000000 0.000003
vn 0.000000 1.000000 0.000003
vn 0.000000 1.000000 0.000003
vn 0.000000 0.000000 1.000000
vn 0.000000 0.000000 1.000000
vn 0.000000 0.000000 1.000000
vn 0.000000 0.000000 1.000000
vn 0.000000 -1.000000 0.000000
vn 0.000000 -1.000000 0.000000
vn 0.000000 -1.000000 0.000000
vn 0.000000 -1.000000 0.000000
vn -0.000003 0.000000 -1.000000
vn -0.000003 0.000000 -1.000000
vn -0.000003 0.000000 -1.000000
vn -0.000003 0.000000 -1.000000
vn -1.000000 0.000000 0.000000
vn -1.000000 0.000000 0.000000
vn -1.000000 0.000000 0.000000
vn -1.000000 0.000000 0.000000
vn 0.000000 1.000000 0.000000
vn 0.000000 1.000000 0.000000
vn 0.000000 1.000000 0.000000
vn 0.000000 1.000000 0.000000
vn 1.000000 0.000000 0.000000
vn 1.000000 0.000000 0.000000
vn 1.000000 0.000000 0.000000
vn 1.000000 0.000000 0.000000
vn 0.000000 -1.000000 0.000000
vn 0.000000 -1.000000 0.000000
vn 0.000000 -1.000000 0.000000
vn 0.000000 -1.000000 0.000000
vn 0.000000 -1.000000 0.000000
vn 0.000000 -1.000000 0.000000
vn 0.000000 -1.000000 0.000000
vn 0.000000 -1.000000 0.000000
vn -1.000000 0.000000 0.000000
vn -1.000000 0.000000 0.000000
vn -1.000000 0.000000 0.000000
vn -1.000000 0.000000 0.000000
vn 0.000000 1.000000 0.000000
vn 0.000000 1.000000 0.000000
vn 0.000000 1.000000 0.000000
vn 0.000000 1.000000 0.000000
s off
g initialShadingGroup polySurface1
f 9/49/1 10/50/2 11/51/3 12/52/4
f 3/25/5 2/26/6 7/27/7 5/28/8
f 1/53/9 2/54/10 3/55/11 4/56/12
f 8/37/13 1/38/14 4/39/15 6/40/16
f 5/57/17 7/58/18 8/59/19 6/60/20
f 8/1/21 7/2/22 10/3/23 9/4/24
f 7/27/25 2/26/26 11/29/27 10/30/28
f 2/5/29 1/6/30 12/7/31 11/8/32
f 1/38/33 8/37/34 9/41/35 12/42/36
f 5/9/37 6/10/38 18/11/39 17/12/40
f 21/61/41 24/62/42 23/63/43 22/64/44
f 15/32/45 17/31/46 19/33/47 14/34/48
f 13/65/49 16/66/50 15/67/51 14/68/52
f 20/45/53 18/44/54 16/43/55 13/46/56
f 17/69/57 18/70/58 20/71/59 19/72/60
f 20/13/61 21/14/62 22/15/63 19/16/64
f 19/33/65 22/35/66 23/36/67 14/34/68
f 14/17/69 23/18/70 24/19/71 13/20/72
f 13/46/73 24/47/74 21/48/75 20/45/76
f 4/39/77 16/43/78 18/44/79 6/40/80
f 3/21/81 15/22/82 16/23/83 4/24/84
f 5/28/85 17/31/86 15/32/87 3/25/88
f 33/121/89 36/124/90 35/123/91 34/122/92
f 27/97/93 29/100/94 31/99/95 26/98/96
f 25/125/97 28/128/98 27/127/99 26/126/100
f 32/109/101 30/112/102 28/111/103 25/110/104
f 29/129/105 30/132/106 32/131/107 31/130/108
f 32/73/109 33/76/110 34/75/111 31/74/112
f 31/99/113 34/102/114 35/101/115 26/98/116
f 26/77/117 35/80/118 36/79/119 25/78/120
f 25/110/121 36/114/122 33/113/123 32/109/124
f 29/81/125 41/84/126 42/83/127 30/82/128
f 45/133/129 46/136/130 47/135/131 48/134/132
f 39/104/133 38/106/134 43/105/135 41/103/136
f 37/137/137 38/140/138 39/139/139 40/138/140
f 44/117/141 37/118/142 40/115/143 42/116/144
f 41/141/145 43/144/146 44/143/147 42/142/148
f 44/85/149 43/88/150 46/87/151 45/86/152
f 43/105/153 38/106/154 47/108/155 46/107/156
f 38/89/157 37/92/158 48/91/159 47/90/160
f 37/118/161 44/117/162 45/120/163 48/119/164
f 28/111/165 30/112/166 42/116/167 40/115/168
f 27/93/169 28/96/170 40/95/171 39/94/172
f 29/100/173 27/97/174 39/104/175 41/103/176
